<svg xmlns="http://www.w3.org/2000/svg" width="42" height="42" viewBox="0 0 42 42" fill="none"><path fill-rule="evenodd" clip-rule="evenodd" d="M3.11786 0H38.7821C40.5015 0 41.9 1.39888 41.9 3.11829V38.7821C41.9 40.5015 40.5015 41.9 38.7821 41.9H3.11786C1.39846 41.9 0 40.5015 0 38.7821V3.11829C0 1.39888 1.39846 0 3.11786 0ZM38.7821 40.1542C39.5387 40.1542 40.1542 39.5387 40.1542 38.7821V3.11829C40.1542 2.36131 39.5387 1.74583 38.7821 1.74583H3.11786C2.36131 1.74583 1.74583 2.36131 1.74583 3.11829V38.7821C1.74583 39.5387 2.36131 40.1542 3.11786 40.1542H38.7821ZM10.0386 6.55664H11.7844V10.0389H15.2667V11.7848H11.7844V15.2671H10.0386V11.7848H6.5563V10.0389H10.0386V6.55664ZM35.3438 10.0388H26.6334V11.7847H35.3438V10.0388ZM6.5563 32.3608H15.2667V34.1067H6.5563V32.3608ZM15.2667 27.8713H6.5563V29.6172H15.2667V27.8713ZM30.9886 29.7547L33.4509 27.2922L34.6853 28.5266L32.2229 30.9891L34.6853 33.4517L33.4509 34.686L30.9886 32.2235L28.5263 34.686L27.2919 33.4517L29.7543 30.9891L27.2919 28.5266L28.5263 27.2922L30.9886 29.7547Z" fill="#DBDBDB"></path></svg>