<svg xmlns="http://www.w3.org/2000/svg" width="50" height="50" viewBox="0 0 66 65" fill="none"><rect x="0.921018" y="0.772824" width="63.3716" height="63.3716" rx="6.22718" stroke="white" stroke-opacity="0.2" stroke-width="1.54565"></rect><path fill-rule="evenodd" clip-rule="evenodd" d="M39.3189 19.61C41.2211 19.61 43.0454 20.3657 44.3904 21.7107C45.7355 23.0558 46.4911 24.88 46.4911 26.7822V39.1705C46.4911 41.0727 45.7355 42.897 44.3904 44.242C43.0454 45.5871 41.2211 46.3427 39.3189 46.3427H26.9306C25.0285 46.3427 23.2042 45.5871 21.8591 44.242C20.5141 42.897 19.7585 41.0727 19.7585 39.1705V26.7822C19.7585 24.88 20.5141 23.0558 21.8591 21.7107C23.2042 20.3657 25.0285 19.61 26.9306 19.61H39.3189ZM39.3189 17.002H26.9306C24.3391 17.0097 21.856 18.0426 20.0235 19.8751C18.191 21.7076 17.1581 24.1907 17.1504 26.7822V39.1705C17.1581 41.762 18.191 44.2452 20.0235 46.0777C21.856 47.9101 24.3391 48.943 26.9306 48.9508H39.3189C41.9104 48.943 44.3936 47.9101 46.2261 46.0777C48.0586 44.2452 49.0915 41.762 49.0992 39.1705V26.7822C49.0915 24.1907 48.0586 21.7076 46.2261 19.8751C44.3936 18.0426 41.9104 17.0097 39.3189 17.002ZM41.6465 22.5439C41.277 22.5439 40.9158 22.6535 40.6086 22.8588C40.3015 23.064 40.062 23.3558 39.9206 23.6971C39.7793 24.0384 39.7423 24.414 39.8143 24.7764C39.8864 25.1388 40.0643 25.4716 40.3256 25.7329C40.5868 25.9941 40.9197 26.172 41.282 26.2441C41.6444 26.3162 42.02 26.2792 42.3613 26.1378C42.7027 25.9964 42.9944 25.757 43.1997 25.4498C43.4049 25.1426 43.5145 24.7814 43.5145 24.412C43.5145 24.1667 43.4662 23.9237 43.3723 23.6971C43.2784 23.4705 43.1408 23.2645 42.9674 23.0911C42.7939 22.9176 42.588 22.78 42.3613 22.6861C42.1347 22.5923 41.8918 22.5439 41.6465 22.5439ZM36.4167 28.2314C35.4683 27.5983 34.3535 27.2608 33.2133 27.2614C31.6863 27.264 30.2225 27.8717 29.1428 28.9515C28.063 30.0312 27.4553 31.495 27.4527 33.022C27.452 34.1622 27.7896 35.2771 28.4227 36.2254C29.0558 37.1738 29.956 37.913 31.0093 38.3497C32.0626 38.7863 33.2218 38.9008 34.3402 38.6785C35.4586 38.4562 36.4859 37.9072 37.2922 37.1009C38.0984 36.2946 38.6474 35.2673 38.8697 34.1489C39.092 33.0305 38.9776 31.8713 38.541 30.818C38.1043 29.7647 37.365 28.8645 36.4167 28.2314ZM28.5662 26.0724C29.9409 25.1504 31.558 24.6566 33.2133 24.6533C34.3138 24.6512 35.4039 24.866 36.4213 25.2856C37.4387 25.7052 38.3634 26.3212 39.1425 27.0985C39.9215 27.8758 40.5397 28.799 40.9617 29.8154C41.3836 30.8318 41.601 31.9215 41.6014 33.022C41.6021 34.6772 41.112 36.2955 40.1932 37.6723C39.2744 39.0492 37.9681 40.1227 36.4393 40.7573C34.9106 41.392 33.228 41.5592 31.6043 41.2378C29.9805 40.9165 28.4885 40.121 27.3167 38.9519C26.1449 37.7829 25.3459 36.2927 25.0208 34.6697C24.6956 33.0467 24.8589 31.3637 25.49 29.8335C26.121 28.3032 27.1915 26.9944 28.5662 26.0724Z" fill="white"></path></svg>