<svg xmlns="http://www.w3.org/2000/svg" width="50" height="50" viewBox="0 0 65 65" fill="none"><rect x="0.772824" y="0.772824" width="63.3716" height="63.3716" rx="6.22718" stroke="white" stroke-opacity="0.2" stroke-width="1.54565"></rect><path d="M40.297 34.3763L37.5778 32.3874C37.1644 32.0843 36.6592 31.9649 36.1539 32.0429C35.6486 32.121 35.2077 32.392 34.9045 32.8054L34.064 33.9583C34.0548 33.9721 34.0456 33.9859 34.0364 33.9997C33.9078 34.018 33.228 34.0318 31.602 32.7365L31.4274 32.6125C29.7279 31.4826 29.535 30.8349 29.512 30.7017C29.5212 30.6879 29.535 30.6741 29.5442 30.6604L30.3848 29.5075C31.0048 28.6577 30.8211 27.4589 29.9668 26.8342L27.197 24.8131C26.3473 24.1884 25.1484 24.3768 24.5237 25.2311L23.674 26.3978C22.8518 27.5278 22.6359 29.0114 23.0998 30.3664C23.775 32.3277 25.47 34.3993 28.1524 36.5306C28.1984 36.5857 28.2535 36.6316 28.3132 36.6775C28.3775 36.7235 28.4464 36.7694 28.5107 36.8153C28.575 36.8659 28.6393 36.9118 28.7036 36.9623C28.7633 37.0083 28.8276 37.045 28.8919 37.0726C31.7398 38.9742 34.2293 39.9617 36.3055 40.0031C36.333 40.0031 36.3652 40.0031 36.3928 40.0031C37.7478 40.0031 39.0431 39.3371 39.8607 38.2117L40.7104 37.045C41.0136 36.6316 41.133 36.1264 41.0549 35.6211C40.9814 35.1204 40.7104 34.6749 40.297 34.3763ZM39.2314 35.9656L38.3816 37.1323C37.8948 37.7983 37.1139 38.1795 36.3468 38.1658C35.1066 38.1382 32.9386 37.6238 29.6039 35.3317C26.4024 32.8514 25.2495 30.9451 24.8453 29.7739C24.5789 28.9976 24.6983 28.1203 25.1622 27.4864L26.012 26.3197C26.0349 26.2876 26.0809 26.2784 26.1176 26.3013L28.8873 28.3224C28.9195 28.3454 28.9287 28.3959 28.9057 28.428L28.1019 29.5258C27.8585 29.7922 27.6426 30.2424 27.6793 30.8165C27.7528 31.8776 28.6439 32.9662 30.3802 34.1191L30.4858 34.1972C32.144 35.52 33.4531 36.0391 34.4865 35.7865C35.0423 35.6487 35.4052 35.3042 35.5843 34.9918L36.3882 33.894C36.4111 33.8665 36.4662 33.8573 36.4938 33.8757L39.2176 35.8645C39.2452 35.8783 39.2498 35.9334 39.2314 35.9656Z" fill="white"></path><path d="M32.1073 17C23.7797 17 17 23.7751 17 32.1073C17 35.6165 18.2172 38.9972 20.4358 41.698L17.8865 46.6634C17.7166 46.9895 17.7625 47.3845 17.9967 47.6693C18.1759 47.8806 18.4331 48 18.7041 48C18.7914 48 18.8786 47.9862 18.9659 47.9633L25.9247 45.8963C27.8723 46.7736 29.9484 47.2145 32.1027 47.2145C40.4303 47.2145 47.21 40.4395 47.21 32.1073C47.21 23.7751 40.4349 17 32.1073 17ZM32.1073 45.3726C30.1092 45.3726 28.1846 44.9409 26.3978 44.0819C26.1911 43.9855 25.9569 43.9671 25.741 44.0314L20.5093 45.5885L22.3558 41.9874C22.5303 41.6475 22.4752 41.2387 22.2226 40.9539C20.0407 38.5195 18.8373 35.3731 18.8373 32.1073C18.8373 24.7902 24.7902 18.8373 32.1073 18.8373C39.4244 18.8373 45.3726 24.7902 45.3726 32.1073C45.3726 39.4244 39.4244 45.3726 32.1073 45.3726Z" fill="white"></path></svg>